<?xml version="1.0" encoding="UTF-8"?>
<!DOCTYPE svg PUBLIC "-//W3C//DTD SVG 1.1//EN" "http://www.w3.org/Graphics/SVG/1.1/DTD/svg11.dtd">
<svg xmlns="http://www.w3.org/2000/svg" version="1.1" width="48px" height="48px" style="shape-rendering:geometricPrecision; text-rendering:geometricPrecision; image-rendering:optimizeQuality; fill-rule:evenodd; clip-rule:evenodd" xmlns:xlink="http://www.w3.org/1999/xlink">
<g><path style="opacity:0.866" fill="#78919b" d="M 37.5,10.5 C 35.7868,11.6354 35.1201,13.302 35.5,15.5C 34.6091,16.2613 33.9424,17.2613 33.5,18.5C 32.3112,19.4287 30.9778,19.762 29.5,19.5C 30.6406,14.2097 32.6406,9.20971 35.5,4.5C 36.6888,3.57131 38.0222,3.23798 39.5,3.5C 39.6061,6.07862 38.9395,8.41195 37.5,10.5 Z"/></g>
<g><path style="opacity:0.973" fill="#7fcff5" d="M 5.5,9.5 C 7.45101,9.22672 8.95101,9.89339 10,11.5C 10.3918,15.5276 10.8918,19.5276 11.5,23.5C 9.54899,23.7733 8.04899,23.1066 7,21.5C 6.35831,17.5092 5.85831,13.5092 5.5,9.5 Z"/></g>
<g><path style="opacity:0.795" fill="#526b77" d="M 37.5,10.5 C 39.7019,14.5693 41.0352,18.9027 41.5,23.5C 38.5,23.5 35.5,23.5 32.5,23.5C 34.0251,21.9642 36.0251,20.9642 38.5,20.5C 37.7255,18.6036 36.7255,16.937 35.5,15.5C 35.1201,13.302 35.7868,11.6354 37.5,10.5 Z"/></g>
<g><path style="opacity:1" fill="#fe9800" d="M 32.5,23.5 C 35.5,23.5 38.5,23.5 41.5,23.5C 42.8333,23.5 43.5,24.1667 43.5,25.5C 38.5,25.5 33.5,25.5 28.5,25.5C 26.076,25.8076 23.7427,25.4742 21.5,24.5C 25.1073,23.5108 28.774,23.1774 32.5,23.5 Z"/></g>
<g><path style="opacity:1" fill="#6c8693" d="M 5.5,9.5 C 5.85831,13.5092 6.35831,17.5092 7,21.5C 8.04899,23.1066 9.54899,23.7733 11.5,23.5C 13.604,23.2011 15.604,23.5344 17.5,24.5C 14.2145,25.0419 11.2145,26.0419 8.5,27.5C 7.59603,28.209 7.26269,29.209 7.5,30.5C 12.5,30.5 17.5,30.5 22.5,30.5C 20.3647,32.369 17.6981,33.0356 14.5,32.5C 14.5,34.1667 14.5,35.8333 14.5,37.5C 16.5,37.8333 18.5,38.1667 20.5,38.5C 21.0522,40.3307 21.0522,41.9974 20.5,43.5C 18.1667,40.8333 15.8333,40.8333 13.5,43.5C 11.1667,40.8333 8.83333,40.8333 6.5,43.5C 5.94784,41.9974 5.94784,40.3307 6.5,38.5C 8.5,38.1667 10.5,37.8333 12.5,37.5C 12.5,35.8333 12.5,34.1667 12.5,32.5C 10.1667,32.5 7.83333,32.5 5.5,32.5C 4.87086,26.3376 4.2042,20.1709 3.5,14C 3.56865,12.0145 4.23532,10.5145 5.5,9.5 Z"/></g>
<g><path style="opacity:1" fill="#f47c00" d="M 28.5,25.5 C 33.5,25.5 38.5,25.5 43.5,25.5C 43.5,31.5 43.5,37.5 43.5,43.5C 38.5,43.5 33.5,43.5 28.5,43.5C 28.5,37.5 28.5,31.5 28.5,25.5 Z"/></g>
<g><path style="opacity:0.974" fill="#4fc3f7" d="M 8.5,27.5 C 13.1667,27.5 17.8333,27.5 22.5,27.5C 22.5,28.5 22.5,29.5 22.5,30.5C 17.5,30.5 12.5,30.5 7.5,30.5C 7.26269,29.209 7.59603,28.209 8.5,27.5 Z"/></g>
</svg>
