<?xml version="1.0" encoding="UTF-8"?>
<svg version="1.1" xmlns="http://www.w3.org/2000/svg" width="512" height="512">
<path d="M0 0 C1.7474929 -0.01007584 1.7474929 -0.01007584 3.5302887 -0.02035522 C7.37798337 -0.03933783 11.22550361 -0.04325974 15.07324219 -0.04541016 C17.075806 -0.0502129 19.07836985 -0.0550193 21.08093238 -0.06033099 C27.37737272 -0.07659273 33.67375591 -0.08150208 39.97021484 -0.08007812 C46.44476896 -0.07887812 52.91898897 -0.09995653 59.3934586 -0.13156545 C64.96907708 -0.15780657 70.544587 -0.16844211 76.12026668 -0.16716731 C79.44281483 -0.16665983 82.76500108 -0.1740906 86.08750153 -0.19352341 C89.79949859 -0.21319973 93.5106444 -0.20733751 97.22265625 -0.1953125 C98.30871658 -0.20655151 99.39477692 -0.21779053 100.51374817 -0.22937012 C108.69024802 -0.16233215 115.14471527 1.69766707 122.12011719 5.97802734 C131.14499557 15.25359679 133.83870596 25.56903247 133.74865723 38.2449646 C133.75318736 39.30268212 133.75771749 40.36039964 133.76238489 41.45016921 C133.77394933 44.9704879 133.76438575 48.49042224 133.75488281 52.01074219 C133.75899067 54.54444116 133.76445281 57.07813825 133.77116394 59.61183167 C133.78286962 65.0568513 133.78571634 70.50176103 133.7808075 75.94678879 C133.77397736 83.83228833 133.78655606 91.71766897 133.80431467 99.60314722 C133.83292494 112.41625309 133.85046639 125.22934607 133.85888672 138.04248047 C133.8593939 138.80824695 133.85990108 139.57401344 133.86042362 140.36298497 C133.86395009 145.7971656 133.86707948 151.23134642 133.87011719 156.66552734 C133.87358587 162.8696291 133.87723533 169.07373067 133.88134766 175.27783203 C133.88185027 176.04205181 133.88235289 176.80627159 133.88287073 177.59364955 C133.89162964 190.35866879 133.91209518 203.12364386 133.94082975 215.88863337 C133.95796008 223.74938658 133.96461695 231.61001444 133.9575237 239.47078384 C133.95283189 245.49996744 133.9633304 251.52902669 133.97927284 257.55819511 C133.9832657 260.02359798 133.98216727 262.48901537 133.97550011 264.95441246 C133.96707397 268.33049998 133.97716026 271.7060663 133.99157715 275.0821228 C133.98468321 276.04810312 133.97778928 277.01408343 133.97068644 278.00933588 C134.053411 288.0140625 136.37984945 297.47244835 140.99511719 306.35302734 C141.3428418 307.02857666 141.69056641 307.70412598 142.04882812 308.40014648 C150.93843953 325.08303675 164.66880866 334.84712559 182.15527344 341.32177734 C200.44710037 346.87878806 219.40824451 343.10890546 235.97949219 334.39599609 C251.87207263 324.5272163 261.88298765 309.12457361 266.79199219 291.28662109 C268.31356374 283.40117931 268.51606784 275.47620621 268.50141907 267.46775818 C268.50353478 266.42425817 268.5056505 265.38075816 268.50783032 264.30563694 C268.51378807 260.83371138 268.51283322 257.3618226 268.51196289 253.88989258 C268.51499708 251.39073628 268.51851926 248.89158052 268.52249146 246.39242554 C268.53035899 241.0227339 268.53553719 235.65304945 268.53878212 230.28335381 C268.54430111 221.79061277 268.56121971 213.29791137 268.5801239 204.80519104 C268.58647918 201.89457995 268.59278778 198.98396876 268.59910107 196.07335758 C268.60068483 195.34614935 268.60226859 194.61894112 268.60390035 193.86969627 C268.62180675 185.60738823 268.63804942 177.34507744 268.65307617 169.08276367 C268.65445204 168.32817271 268.65582791 167.57358176 268.65724548 166.79612441 C268.67919228 154.55847435 268.68993749 142.32083465 268.69744692 130.08316838 C268.70552392 117.50007394 268.72882841 104.91706794 268.76540059 92.33402401 C268.78738798 84.58226628 268.79710185 76.83069053 268.79090025 69.07890321 C268.7873442 63.13850487 268.80461942 57.19828143 268.8295784 51.25793076 C268.83649568 48.82513839 268.83661101 46.3923156 268.82937813 43.95952415 C268.8204923 40.63477016 268.83618036 37.31098804 268.85786438 33.98631287 C268.84942184 33.02715782 268.84097931 32.06800278 268.83228093 31.07978243 C268.94540384 21.67956854 272.2126046 14.83912294 278.57714844 8.01318359 C286.26198617 0.62971205 293.85740956 -0.00840186 304 0 C305.16499527 -0.00671722 306.32999054 -0.01343445 307.5302887 -0.02035522 C311.37798337 -0.03933783 315.22550361 -0.04325974 319.07324219 -0.04541016 C321.075806 -0.0502129 323.07836985 -0.0550193 325.08093238 -0.06033099 C331.37737272 -0.07659273 337.67375591 -0.08150208 343.97021484 -0.08007812 C350.44476896 -0.07887812 356.91898897 -0.09995653 363.3934586 -0.13156545 C368.96907708 -0.15780657 374.544587 -0.16844211 380.12026668 -0.16716731 C383.44281483 -0.16665983 386.76500108 -0.1740906 390.08750153 -0.19352341 C393.79949859 -0.21319973 397.5106444 -0.20733751 401.22265625 -0.1953125 C402.30871658 -0.20655151 403.39477692 -0.21779053 404.51374817 -0.22937012 C412.96494134 -0.16007997 419.53694045 1.78421948 426.62011719 6.41552734 C435.49435618 15.69314083 437.68108816 25.53883631 437.62408447 37.97512817 C437.62720445 39.02816474 437.63032444 40.0812013 437.63353896 41.16614807 C437.64149474 44.68308851 437.63520439 48.19985525 437.62890625 51.71679688 C437.63161741 54.2438263 437.63517904 56.77085494 437.63952637 59.29788208 C437.64769731 65.44572088 437.64650279 71.59349578 437.64070109 77.74133541 C437.63617383 82.74763419 437.63557631 87.75391933 437.63774872 92.76021957 C437.63805518 93.47437767 437.63836165 94.18853577 437.6386774 94.92433503 C437.63931692 96.37557667 437.63996534 97.82681831 437.64062259 99.27805994 C437.64632364 112.88357599 437.63977451 126.48906508 437.62902185 140.0945767 C437.62011342 151.72517409 437.62161639 163.35573148 437.63085938 174.98632812 C437.64161255 188.52335037 437.64574616 202.06034888 437.63963485 215.5973748 C437.63899784 217.04738799 437.6383691 218.49740119 437.63774872 219.9474144 C437.63744017 220.6606275 437.63713162 221.3738406 437.63681372 222.10866622 C437.63509982 227.09179943 437.63797398 232.0749174 437.64270782 237.05804825 C437.64897208 243.80010523 437.64437986 250.54207637 437.63291931 257.2841301 C437.63030189 259.74210741 437.63098702 262.20009113 437.63544464 264.6580658 C437.66722455 283.98304402 437.01684585 303.22792767 433.18261719 322.22802734 C432.86006958 323.84704956 432.86006958 323.84704956 432.53100586 325.4987793 C422.43609185 374.19294121 395.90048224 422.19341893 357.37011719 454.29052734 C356.06107422 455.46615234 356.06107422 455.46615234 354.72558594 456.66552734 C316.9416412 490.32281255 263.6857793 512.05002702 212.93652344 512.52880859 C212.06916061 512.53860245 211.20179779 512.5483963 210.30815125 512.55848694 C190.66215426 512.73456777 171.65675475 512.4856344 152.37011719 508.29052734 C150.88874268 507.96906738 150.88874268 507.96906738 149.37744141 507.64111328 C114.48027853 499.78453426 82.3836274 484.53317802 54.37011719 462.29052734 C53.39429687 461.51966797 52.41847656 460.74880859 51.41308594 459.95458984 C36.45121888 447.85132958 22.59308386 433.93938617 11.37011719 418.29052734 C10.59667969 417.22705078 9.82324219 416.16357422 9.02636719 415.06787109 C-12.39458137 384.8804727 -26.66326743 350.86247244 -32.62988281 314.29052734 C-32.88840751 312.74302874 -32.88840751 312.74302874 -33.15215492 311.16426754 C-35.08740926 297.93245129 -34.92635648 284.72065753 -34.92041016 271.37280273 C-34.92640359 268.67571487 -34.93315571 265.97863802 -34.94076538 263.28155518 C-34.95726041 256.75283838 -34.96286944 250.22415773 -34.96399014 243.69542182 C-34.96494497 238.3879048 -34.96907678 233.08039956 -34.97539139 227.77288628 C-34.99296304 212.69518132 -35.00223526 197.61750466 -35.00073044 182.53978939 C-35.00065053 181.72977656 -35.00057062 180.91976374 -35.00048828 180.08520508 C-35.00040652 179.27419483 -35.00032476 178.46318459 -35.00024052 177.62759828 C-34.9994261 164.45909893 -35.01861362 151.29071353 -35.04676501 138.12224717 C-35.0755032 124.57171035 -35.08930518 111.02122916 -35.08757746 97.4706611 C-35.08691447 89.87436906 -35.09236867 82.27819693 -35.11393356 74.68193245 C-35.13215645 68.22228035 -35.13648272 61.7628027 -35.12291472 55.303136 C-35.11639396 52.0107109 -35.11841838 48.71868921 -35.13362122 45.42628288 C-35.14905537 41.85229522 -35.13977671 38.27918422 -35.12435913 34.70521545 C-35.13464626 33.67233416 -35.14493338 32.63945287 -35.15553224 31.57527214 C-35.06355168 21.91492418 -31.97867996 15.0442746 -25.42285156 8.01318359 C-17.73801383 0.62971205 -10.14259044 -0.00840186 0 0 Z " fill="#F84141" transform="translate(54.6298828125,-0.29052734375)"/>
<path d="M0 0 C1.7474929 -0.01007584 1.7474929 -0.01007584 3.5302887 -0.02035522 C7.37798337 -0.03933783 11.22550361 -0.04325974 15.07324219 -0.04541016 C17.075806 -0.0502129 19.07836985 -0.0550193 21.08093238 -0.06033099 C27.37737272 -0.07659273 33.67375591 -0.08150208 39.97021484 -0.08007812 C46.44476896 -0.07887812 52.91898897 -0.09995653 59.3934586 -0.13156545 C64.96907708 -0.15780657 70.544587 -0.16844211 76.12026668 -0.16716731 C79.44281483 -0.16665983 82.76500108 -0.1740906 86.08750153 -0.19352341 C89.79949859 -0.21319973 93.5106444 -0.20733751 97.22265625 -0.1953125 C98.30871658 -0.20655151 99.39477692 -0.21779053 100.51374817 -0.22937012 C108.96494134 -0.16007997 115.53694045 1.78421948 122.62011719 6.41552734 C131.49435618 15.69314083 133.68108816 25.53883631 133.62408447 37.97512817 C133.62876444 39.55468302 133.62876444 39.55468302 133.63353896 41.16614807 C133.64149474 44.68308851 133.63520439 48.19985525 133.62890625 51.71679688 C133.63161741 54.2438263 133.63517904 56.77085494 133.63952637 59.29788208 C133.64769731 65.44572088 133.64650279 71.59349578 133.64070109 77.74133541 C133.63617383 82.74763419 133.63557631 87.75391933 133.63774872 92.76021957 C133.63805518 93.47437767 133.63836165 94.18853577 133.6386774 94.92433503 C133.63931692 96.37557667 133.63996534 97.82681831 133.64062259 99.27805994 C133.64632364 112.88357599 133.63977451 126.48906508 133.62902185 140.0945767 C133.62011342 151.72517409 133.62161639 163.35573148 133.63085938 174.98632812 C133.64161255 188.52335037 133.64574616 202.06034888 133.63963485 215.5973748 C133.63899784 217.04738799 133.6383691 218.49740119 133.63774872 219.9474144 C133.63728589 221.01723405 133.63728589 221.01723405 133.63681372 222.10866622 C133.63509982 227.09179943 133.63797398 232.0749174 133.64270782 237.05804825 C133.64897208 243.80010523 133.64437986 250.54207637 133.63291931 257.2841301 C133.63030189 259.74210741 133.63098702 262.20009113 133.63544464 264.6580658 C133.66722455 283.98304402 133.01684585 303.22792767 129.18261719 322.22802734 C128.86006958 323.84704956 128.86006958 323.84704956 128.53100586 325.4987793 C118.43609185 374.19294121 91.90048224 422.19341893 53.37011719 454.29052734 C52.49742187 455.07427734 51.62472656 455.85802734 50.72558594 456.66552734 C13.48231449 489.84119013 -40.25892482 512.68959621 -90.50488281 512.41552734 C-91.23707031 512.41939453 -91.96925781 512.42326172 -92.72363281 512.42724609 C-96.26704804 512.42080352 -99.16586542 512.15653169 -102.62988281 511.29052734 C-102.62988281 456.51052734 -102.62988281 401.73052734 -102.62988281 345.29052734 C-99.32988281 344.63052734 -96.02988281 343.97052734 -92.62988281 343.29052734 C-72.85429655 338.69509926 -57.82079859 329.85360765 -46.30957031 313.04052734 C-37.56313407 298.72078057 -35.46844324 283.94396631 -35.49858093 267.46775818 C-35.49646522 266.42425817 -35.4943495 265.38075816 -35.49216968 264.30563694 C-35.48621193 260.83371138 -35.48716678 257.3618226 -35.48803711 253.88989258 C-35.48500292 251.39073628 -35.48148074 248.89158052 -35.47750854 246.39242554 C-35.46964101 241.0227339 -35.46446281 235.65304945 -35.46121788 230.28335381 C-35.45569889 221.79061277 -35.43878029 213.29791137 -35.4198761 204.80519104 C-35.41352082 201.89457995 -35.40721222 198.98396876 -35.40089893 196.07335758 C-35.39931517 195.34614935 -35.39773141 194.61894112 -35.39609965 193.86969627 C-35.37819325 185.60738823 -35.36195058 177.34507744 -35.34692383 169.08276367 C-35.34486002 167.95087724 -35.34486002 167.95087724 -35.34275452 166.79612441 C-35.32080772 154.55847435 -35.31006251 142.32083465 -35.30255308 130.08316838 C-35.29447608 117.50007394 -35.27117159 104.91706794 -35.23459941 92.33402401 C-35.21261202 84.58226628 -35.20289815 76.83069053 -35.20909975 69.07890321 C-35.2126558 63.13850487 -35.19538058 57.19828143 -35.1704216 51.25793076 C-35.16350432 48.82513839 -35.16338899 46.3923156 -35.17062187 43.95952415 C-35.1795077 40.63477016 -35.16381964 37.31098804 -35.14213562 33.98631287 C-35.15479943 32.5475803 -35.15479943 32.5475803 -35.16771907 31.07978243 C-35.05459616 21.67956854 -31.7873954 14.83912294 -25.42285156 8.01318359 C-17.73801383 0.62971205 -10.14259044 -0.00840186 0 0 Z " fill="#589BDF" transform="translate(358.6298828125,-0.29052734375)"/>
<path d="M0 0 C1.7474929 -0.01007584 1.7474929 -0.01007584 3.5302887 -0.02035522 C7.37798337 -0.03933783 11.22550361 -0.04325974 15.07324219 -0.04541016 C17.075806 -0.0502129 19.07836985 -0.0550193 21.08093238 -0.06033099 C27.37737272 -0.07659273 33.67375591 -0.08150208 39.97021484 -0.08007812 C46.44476896 -0.07887812 52.91898897 -0.09995653 59.3934586 -0.13156545 C64.96907708 -0.15780657 70.544587 -0.16844211 76.12026668 -0.16716731 C79.44281483 -0.16665983 82.76500108 -0.1740906 86.08750153 -0.19352341 C89.79949859 -0.21319973 93.5106444 -0.20733751 97.22265625 -0.1953125 C98.30871658 -0.20655151 99.39477692 -0.21779053 100.51374817 -0.22937012 C108.96494134 -0.16007997 115.53694045 1.78421948 122.62011719 6.41552734 C141.60946521 26.26802755 133.37011719 55.84178506 133.37011719 81.29052734 C77.93011719 81.29052734 22.49011719 81.29052734 -34.62988281 81.29052734 C-34.62988281 17.88767553 -34.62988281 17.88767553 -25.42285156 8.01318359 C-17.73801383 0.62971205 -10.14259044 -0.00840186 0 0 Z " fill="#E3E3EE" transform="translate(358.6298828125,-0.29052734375)"/>
<path d="M0 0 C1.7474929 -0.01007584 1.7474929 -0.01007584 3.5302887 -0.02035522 C7.37798337 -0.03933783 11.22550361 -0.04325974 15.07324219 -0.04541016 C17.075806 -0.0502129 19.07836985 -0.0550193 21.08093238 -0.06033099 C27.37737272 -0.07659273 33.67375591 -0.08150208 39.97021484 -0.08007812 C46.44476896 -0.07887812 52.91898897 -0.09995653 59.3934586 -0.13156545 C64.96907708 -0.15780657 70.544587 -0.16844211 76.12026668 -0.16716731 C79.44281483 -0.16665983 82.76500108 -0.1740906 86.08750153 -0.19352341 C89.79949859 -0.21319973 93.5106444 -0.20733751 97.22265625 -0.1953125 C98.30871658 -0.20655151 99.39477692 -0.21779053 100.51374817 -0.22937012 C108.69024802 -0.16233215 115.14471527 1.69766707 122.12011719 5.97802734 C141.47217272 25.86763998 133.37011719 55.51932312 133.37011719 81.29052734 C77.93011719 81.29052734 22.49011719 81.29052734 -34.62988281 81.29052734 C-34.62988281 17.88767553 -34.62988281 17.88767553 -25.42285156 8.01318359 C-17.73801383 0.62971205 -10.14259044 -0.00840186 0 0 Z " fill="#E3E3EE" transform="translate(54.6298828125,-0.29052734375)"/>
<path d="M0 0 C6.93 0 13.86 0 21 0 C21.00364563 2.63357986 21.00729126 5.26715973 21.01104736 7.98054504 C21.04741287 32.88664439 21.10575943 57.79262464 21.18390274 82.69862843 C21.22355102 95.50082902 21.25601522 108.30296941 21.27099609 121.10522461 C21.28408678 132.27606096 21.31123826 143.44676404 21.35461307 154.61752528 C21.37706252 160.52111083 21.39292073 166.42453304 21.39188385 172.32816505 C21.39240569 204.36201683 22.66930122 234.1037591 32 265 C32.37632568 266.25272705 32.37632568 266.25272705 32.76025391 267.53076172 C43.10213044 301.11026951 61.56707851 331.83591876 86 357 C86.59683594 357.62261719 87.19367188 358.24523437 87.80859375 358.88671875 C96.65195449 368.08594914 105.71088648 376.44953112 116 384 C116.78890625 384.59554688 117.5778125 385.19109375 118.390625 385.8046875 C154.28762581 412.03711117 196.02122142 425.96330052 240 430 C240 430.33 240 430.66 240 431 C184.97410059 432.78365962 132.15182652 415.26243252 89 381 C88.02417969 380.22914063 87.04835938 379.45828125 86.04296875 378.6640625 C71.08110169 366.56080224 57.22296667 352.64885883 46 337 C45.2265625 335.93652344 44.453125 334.87304688 43.65625 333.77734375 C14.50034433 292.68948353 -0.41490318 245.50974158 -0.22705078 195.26367188 C-0.2264854 193.12340805 -0.2268057 190.98314385 -0.22793579 188.84288025 C-0.22850536 183.08158006 -0.2168157 177.32036459 -0.20278788 171.55908394 C-0.19021397 165.51998458 -0.1891048 159.48088289 -0.18673706 153.44177246 C-0.18054176 142.02772049 -0.16415752 130.61370722 -0.14403808 119.19967222 C-0.12161814 106.19592643 -0.11067037 93.19217872 -0.10064721 80.18841839 C-0.07978942 53.45892348 -0.04424478 26.72946555 0 0 Z " fill="#E22B2B" transform="translate(20,81)"/>
<path d="M0 0 C6.93 0 13.86 0 21 0 C21.11598857 26.43503131 21.20509752 52.87000085 21.25906086 79.30523586 C21.28478845 91.580939 21.31983456 103.85648063 21.37719727 116.13208008 C21.42719924 126.83763447 21.45933053 137.54307184 21.47044247 148.24873978 C21.47693284 153.91178228 21.4920727 159.57449013 21.52865028 165.23742485 C21.56287552 170.58003096 21.57299991 175.92216817 21.56553841 181.2648735 C21.56690119 183.21379085 21.57667406 185.16272574 21.59602737 187.11154747 C21.79425726 208.12358199 17.13647789 227.12531838 2.32958984 242.81787109 C-12.76433917 258.08594113 -30.84691123 263.98209874 -51.890625 264.23046875 C-55 264 -55 264 -58 262 C-57.15179688 261.79246094 -56.30359375 261.58492188 -55.4296875 261.37109375 C-35.72673523 256.19636233 -20.75064604 246.6010577 -10 229 C-1.07788661 212.55715229 -0.85181831 195.98067567 -0.79467773 177.78076172 C-0.78508622 175.83842262 -0.77507541 173.89608556 -0.76467896 171.95375061 C-0.73776176 166.70452326 -0.71668123 161.45528705 -0.69667697 156.20602942 C-0.67473561 150.71140287 -0.64738697 145.21680326 -0.62062073 139.72219849 C-0.57080365 129.32795988 -0.52582428 118.93370624 -0.48259836 108.53943837 C-0.43313183 96.70144533 -0.37824876 84.86347932 -0.32291877 73.02551246 C-0.20926746 48.68370004 -0.10258415 24.34186136 0 0 Z " fill="#357FBC" transform="translate(324,81)"/>
<path d="M0 0 C1.06992187 0.00902344 2.13984375 0.01804688 3.2421875 0.02734375 C5.87002439 0.05080658 8.49739406 0.08363541 11.125 0.125 C10.20823486 0.58205322 10.20823486 0.58205322 9.27294922 1.04833984 C-2.35587559 6.87729159 -7.25305674 11.79981798 -11.875 24.125 C-12.205 42.605 -12.535 61.085 -12.875 80.125 C34.975 80.125 82.825 80.125 132.125 80.125 C132.125 62.635 132.125 45.145 132.125 27.125 C132.455 27.125 132.785 27.125 133.125 27.125 C133.125 44.945 133.125 62.765 133.125 81.125 C77.685 81.125 22.245 81.125 -34.875 81.125 C-34.875 17.72214819 -34.875 17.72214819 -25.66796875 7.84765625 C-17.88189488 0.36691861 -10.27192289 -0.16445197 0 0 Z " fill="#C9C9DB" transform="translate(358.875,-0.125)"/>
<path d="M0 0 C1.67642578 0.01353516 1.67642578 0.01353516 3.38671875 0.02734375 C6.13303462 0.05081654 8.87890472 0.08365272 11.625 0.125 C11.625 0.455 11.625 0.785 11.625 1.125 C11.068125 1.27195313 10.51125 1.41890625 9.9375 1.5703125 C0.77947703 4.26202871 -4.90881643 8.73634727 -10.1484375 16.68359375 C-19.24638995 34.79257554 -14.14401412 67.65176245 -14.375 80.125 C33.805 80.125 81.985 80.125 131.625 80.125 C131.625 62.965 131.625 45.805 131.625 28.125 C131.955 28.125 132.285 28.125 132.625 28.125 C132.625 45.615 132.625 63.105 132.625 81.125 C77.185 81.125 21.745 81.125 -35.375 81.125 C-35.375 17.72214819 -35.375 17.72214819 -26.16796875 7.84765625 C-18.23509162 0.22587234 -10.45594694 -0.16010284 0 0 Z " fill="#CCC8D8" transform="translate(55.375,-0.125)"/>
</svg>
